<svg xmlns="http://www.w3.org/2000/svg" xmlns:xlink="http://www.w3.org/1999/xlink" width="250" zoomAndPan="magnify" viewBox="0 0 187.5 187.499992" height="250" preserveAspectRatio="xMidYMid meet" version="1.0"><defs><g/><clipPath id="8f1ebe427e"><path d="M 37.585938 43.011719 L 62.644531 43.011719 L 62.644531 159.699219 L 37.585938 159.699219 Z M 37.585938 43.011719 " clip-rule="nonzero"/></clipPath><clipPath id="529e7b0750"><path d="M 124.449219 43.011719 L 149.507812 43.011719 L 149.507812 159.699219 L 124.449219 159.699219 Z M 124.449219 43.011719 " clip-rule="nonzero"/></clipPath><clipPath id="bc38e4244c"><path d="M 0 0 L 187 0 L 187 187 L 0 187 Z M 0 0 " clip-rule="nonzero"/></clipPath></defs><path fill="#ffffff" d="M 0 0 L 187 0 L 187 187 L 0 187 Z M 0 0 " fill-opacity="1" fill-rule="nonzero"/><path fill="#000000" d="M 0 0 L 187 0 L 187 187 L 0 187 Z M 0 0 " fill-opacity="1" fill-rule="nonzero"/><g clip-path="url(#8f1ebe427e)"><path fill="#ffffff" d="M 37.585938 43.011719 L 62.644531 43.011719 L 62.644531 159.6875 L 37.585938 159.6875 Z M 37.585938 43.011719 " fill-opacity="1" fill-rule="nonzero"/></g><g clip-path="url(#529e7b0750)"><path fill="#ffffff" d="M 124.449219 43.011719 L 149.507812 43.011719 L 149.507812 159.6875 L 124.449219 159.6875 Z M 124.449219 43.011719 " fill-opacity="1" fill-rule="nonzero"/></g><g clip-path="url(#bc38e4244c)"><path stroke-linecap="butt" transform="matrix(3.740026, 0, 0, 3.740026, 24.053044, -35.53025)" fill="none" stroke-linejoin="miter" d="M 9.660507 15.889912 L 18.38893 43.321203 L 18.72733 43.321203 L 27.467242 15.889912 L 35.928287 15.889912 L 23.479552 51.999492 L 13.64924 51.999492 L 1.175439 15.889912 Z M 9.660507 15.889912 " stroke="#000000" stroke-width="1.427714" stroke-opacity="1" stroke-miterlimit="4"/></g><g fill="#0b68c5" fill-opacity="1"><g transform="translate(24.053044, 158.951117)"><g><path d="M 36.140625 -135.046875 L 68.78125 -32.4375 L 70.03125 -32.4375 L 102.734375 -135.046875 L 134.390625 -135.046875 L 87.828125 0 L 51.03125 0 L 4.421875 -135.046875 Z M 36.140625 -135.046875 "/></g></g></g></svg>